<?xml version="1.0" encoding="UTF-8" standalone="no"?>
<svg
   enable-background="new 0 0 500 500"
   height="500px"
   id="Layer_1"
   version="1.1"
   viewBox="0 0 500 500"
   width="500px"
   xml:space="preserve"
   sodipodi:docname="key.svg"
   inkscape:version="1.2.2 (732a01da63, 2022-12-09)"
   xmlns:inkscape="http://www.inkscape.org/namespaces/inkscape"
   xmlns:sodipodi="http://sodipodi.sourceforge.net/DTD/sodipodi-0.dtd"
   xmlns="http://www.w3.org/2000/svg"
   xmlns:svg="http://www.w3.org/2000/svg"><defs
     id="defs14" /><sodipodi:namedview
     id="namedview12"
     pagecolor="#ffffff"
     bordercolor="#000000"
     borderopacity="0.25"
     inkscape:showpageshadow="2"
     inkscape:pageopacity="0.0"
     inkscape:pagecheckerboard="0"
     inkscape:deskcolor="#d1d1d1"
     showgrid="false"
     inkscape:zoom="1.674"
     inkscape:cx="249.70131"
     inkscape:cy="249.70131"
     inkscape:window-width="1920"
     inkscape:window-height="1017"
     inkscape:window-x="1912"
     inkscape:window-y="-8"
     inkscape:window-maximized="1"
     inkscape:current-layer="Layer_1" /><path
     clip-rule="evenodd"
     d="m 121.29925,56.13175 c -14.071,-14.09 -36.975,-14.09 -51.055,0 -14.087,14.08 -14.087,36.981 0,50.965 l 10.08,10.177 -42.428,42.438 c -7.268,7.257 -7.268,18.888 0,26.155 l 63.244,63.244 c 7.255,7.268 18.89,7.268 26.157,0 l 42.427,-42.429 75.682,75.586 c -8.357,16.174 -13.075,34.61 -13.075,54.059 0,65.234 52.869,118.111 118.109,118.111 65.232,0 118.111,-52.877 118.111,-118.111 0,-65.238 -52.879,-118.11 -118.111,-118.11 -19.449,0 -37.886,4.721 -54.06,13.077 z m 229.141,234.767 c 25.075,0 45.429,20.354 45.429,45.427 0,25.076 -20.354,45.426 -45.429,45.426 -25.075,0 -45.426,-20.35 -45.426,-45.426 0,-25.072 20.352,-45.427 45.426,-45.427 z"
     fill="#ff9501"
     fill-rule="evenodd"
     id="path9" /></svg>
