<?xml version="1.0" encoding="UTF-8" standalone="no"?>
<svg
   height="48"
   viewBox="0 -960 960 960"
   width="48"
   version="1.1"
   id="svg4"
   sodipodi:docname="call_FILL0_wght400_GRAD0_opsz48.svg"
   inkscape:version="1.2.2 (732a01da63, 2022-12-09)"
   xmlns:inkscape="http://www.inkscape.org/namespaces/inkscape"
   xmlns:sodipodi="http://sodipodi.sourceforge.net/DTD/sodipodi-0.dtd"
   xmlns="http://www.w3.org/2000/svg"
   xmlns:svg="http://www.w3.org/2000/svg">
  <defs
     id="defs8" />
  <sodipodi:namedview
     id="namedview6"
     pagecolor="#ffffff"
     bordercolor="#000000"
     borderopacity="0.25"
     inkscape:showpageshadow="2"
     inkscape:pageopacity="0.0"
     inkscape:pagecheckerboard="0"
     inkscape:deskcolor="#d1d1d1"
     showgrid="false"
     inkscape:zoom="17.4375"
     inkscape:cx="13.677419"
     inkscape:cy="24.028674"
     inkscape:window-width="1920"
     inkscape:window-height="1017"
     inkscape:window-x="-8"
     inkscape:window-y="1"
     inkscape:window-maximized="1"
     inkscape:current-layer="svg4" />
  <path
     d="M795-120q-122 0-242.5-60T336-336q-96-96-156-216.5T120-795q0-19.286 12.857-32.143T165-840h140q13.611 0 24.306 9.5Q340-821 343-805l27 126q2 14-.5 25.5T359-634L259-533q56 93 125.5 162T542-254l95-98q10-11 23-15.5t26-1.5l119 26q15.312 3.375 25.156 15.188Q840-316 840-300v135q0 19.286-12.857 32.143T795-120ZM229-588l81-82-23-110H180q0 39 12 85.5T229-588Zm369 363q41 19 89 31t93 14v-107l-103-21-79 83ZM229-588Zm369 363Z"
     stroke="#FF7800"
     id="path2"
     style="fill:#ff7800;fill-opacity:1;stroke-width:111;stroke-dasharray:none" />
</svg>
